<svg xmlns="http://www.w3.org/2000/svg" width="1200" height="650"><rect width="1200" height="650" fill="#20252b"/><g font-family="sans-serif" font-size="24" text-anchor="middle"><g fill="#34414d" stroke="#91a4b7" stroke-width="4"><rect x="45" y="180" width="170" height="130" rx="18"/><rect x="235" y="180" width="170" height="130" rx="18"/><rect x="425" y="180" width="170" height="130" rx="18"/><rect x="615" y="180" width="170" height="130" rx="18"/><rect x="805" y="180" width="170" height="130" rx="18"/><rect x="995" y="180" width="160" height="130" rx="18"/></g><g fill="#eee"><text x="130" y="235">BRIEF +</text><text x="130" y="270">IDENTITY</text><text x="320" y="235">CONSTRUCT</text><text x="320" y="270">VIEWS</text><text x="510" y="235">EXPRESSION +</text><text x="510" y="270">ASYMMETRY</text><text x="700" y="235">VALUE</text><text x="700" y="270">GROUPS</text><text x="890" y="235">REVIEW +</text><text x="890" y="270">DECIDE</text><text x="1075" y="235">REVISE +</text><text x="1075" y="270">REPEAT</text></g><path d="M215 245 H230 M405 245 H420 M595 245 H610 M785 245 H800 M975 245 H990" stroke="#f2c66d" stroke-width="8"/><text x="600" y="80" fill="#eee" font-size="35">CAPSTONE: DECISIONS REMAIN AUDITABLE</text><text x="600" y="480" fill="#6fc4df" font-size="28">TUTOR EVIDENCE SUPPORTS — ARTIST ACCEPTS, REJECTS, AND COMPLETES</text></g></svg>
