<svg xmlns="http://www.w3.org/2000/svg" width="1200" height="650" viewBox="0 0 1200 650"><rect width="1200" height="650" fill="#20252b"/><g fill="none" stroke="#91a4b7" stroke-width="5"><ellipse cx="170" cy="315" rx="115" ry="170"/><path d="M170 145 L170 485 M80 290 L260 290"/><ellipse cx="445" cy="315" rx="125" ry="170"/><path d="M445 145 L445 485 M345 290 L545 290"/><ellipse cx="720" cy="315" rx="110" ry="180"/><path d="M720 135 L720 495 M635 295 L805 295"/><ellipse cx="1010" cy="315" rx="120" ry="175"/><path d="M1040 145 Q1080 315 1040 485 M900 305 Q1010 260 1120 290" stroke="#6fc4df" stroke-dasharray="13 9"/></g><g fill="#e8edf2" font-family="sans-serif" font-size="25" text-anchor="middle"><text x="170" y="80">BASELINE</text><text x="445" y="80">VARIANTS</text><text x="720" y="80">SELECT + SPECIFY</text><text x="1010" y="80">RECONSTRUCT IN TURN</text></g><path d="M285 315 H320 M575 315 H600 M845 315 H875" stroke="#f2c66d" stroke-width="10"/></svg>
